<svg width="28" height="26" viewBox="0 0 28 26" fill="none" xmlns="http://www.w3.org/2000/svg">
<path fill-rule="evenodd" clip-rule="evenodd" d="M10.6666 13.737C14.3394 13.737 17.2834 10.7548 17.2834 7.03448C17.2834 3.3142 14.3394 0.332031 10.6666 0.332031C6.99387 0.332031 4.04979 3.3142 4.04979 7.03448C4.04979 10.7548 6.99387 13.737 10.6666 13.737ZM10.6666 17.019C5.27225 17.019 0.666626 17.8815 0.666626 21.3272C0.666626 24.7718 5.24423 25.6654 10.6666 25.6654C16.0597 25.6654 20.6666 24.8028 20.6666 21.357C20.6666 17.9112 16.089 17.019 10.6666 17.019ZM24.5305 9.78251H26.1346C26.7949 9.78251 27.3333 10.3284 27.3333 10.998C27.3333 11.6675 26.7949 12.2135 26.1346 12.2135H24.5305V13.7832C24.5305 14.4528 23.9936 14.9987 23.332 14.9987C22.6717 14.9987 22.1333 14.4528 22.1333 13.7832V12.2135H20.532C19.8702 12.2135 19.3333 11.6675 19.3333 10.998C19.3333 10.3284 19.8702 9.78251 20.532 9.78251H22.1333V8.21419C22.1333 7.54463 22.6717 6.9987 23.332 6.9987C23.9936 6.9987 24.5305 7.54463 24.5305 8.21419V9.78251Z" fill="white"/>
</svg>
