<svg width="28" height="28" viewBox="0 0 28 28" fill="none" xmlns="http://www.w3.org/2000/svg">
<path d="M26.5805 1.44394C25.9136 0.759436 24.9265 0.504423 24.0061 0.772849L2.54396 7.014C1.57289 7.28378 0.884613 8.05822 0.6992 9.04204C0.509787 10.0433 1.1714 11.3144 2.03575 11.8458L8.74649 15.9704C9.43477 16.3932 10.3231 16.2872 10.8927 15.7126L18.5772 7.98037C18.964 7.57772 19.6042 7.57772 19.9912 7.98037C20.378 8.36961 20.378 9.00044 19.9912 9.40309L12.2933 17.1368C11.7224 17.7098 11.6157 18.6024 12.0358 19.2949L16.1362 26.073C16.6164 26.8782 17.4434 27.3346 18.3504 27.3346C18.4572 27.3346 18.5772 27.3346 18.684 27.3212C19.7244 27.187 20.5513 26.4757 20.8581 25.469L27.2208 4.03436C27.5009 3.12168 27.2474 2.12846 26.5805 1.44394Z" fill="white"/>
</svg>
